<?xml version="1.0" encoding="UTF-8"?>
<svg width="52px" height="52px" viewBox="0 0 52 52" version="1.1" xmlns="http://www.w3.org/2000/svg" xmlns:xlink="http://www.w3.org/1999/xlink">
    <!-- Generator: Sketch 52.3 (67297) - http://www.bohemiancoding.com/sketch -->
    <title>commercial-icon</title>
    <desc>Created with Sketch.</desc>
    <g id="Page-1" stroke="none" stroke-width="1" fill="none" fill-rule="evenodd">
        <g id="Bill-Calculator_Domestic" transform="translate(-532.000000, -375.000000)" fill-rule="nonzero">
            <g id="commercial-icon" transform="translate(532.000000, 375.000000)">
                <g id="Group-2-Copy" transform="translate(14.000000, 14.000000)" fill="#FFFFFF">
                    <path d="M1.6097561,21.6441718 L1.6097561,0 L12.2926829,0 L12.2926829,8.5398773 L22.6829268,8.5398773 L22.6829268,21.6441718 L24,21.6441718 L24,24 L0,24 L0,21.6441718 L1.6097561,21.6441718 Z M3.36585366,1.6196319 L3.36585366,4.41717791 L6.14634146,4.41717791 L6.14634146,1.6196319 L3.36585366,1.6196319 Z M3.36585366,5.88957055 L3.36585366,8.68711656 L6.14634146,8.68711656 L6.14634146,5.88957055 L3.36585366,5.88957055 Z M7.6097561,1.6196319 L7.6097561,4.41717791 L10.3902439,4.41717791 L10.3902439,1.6196319 L7.6097561,1.6196319 Z M7.6097561,5.88957055 L7.6097561,8.68711656 L10.3902439,8.68711656 L10.3902439,5.88957055 L7.6097561,5.88957055 Z M3.36585366,10.1595092 L3.36585366,12.9570552 L6.14634146,12.9570552 L6.14634146,10.1595092 L3.36585366,10.1595092 Z M13.7560976,10.1595092 L13.7560976,12.9570552 L16.5365854,12.9570552 L16.5365854,10.1595092 L13.7560976,10.1595092 Z M7.6097561,10.1595092 L7.6097561,12.9570552 L10.3902439,12.9570552 L10.3902439,10.1595092 L7.6097561,10.1595092 Z M18,10.1595092 L18,12.9570552 L20.7804878,12.9570552 L20.7804878,10.1595092 L18,10.1595092 Z M3.36585366,14.4294479 L3.36585366,17.2269939 L6.14634146,17.2269939 L6.14634146,14.4294479 L3.36585366,14.4294479 Z M13.7560976,14.4294479 L13.7560976,17.2269939 L16.5365854,17.2269939 L16.5365854,14.4294479 L13.7560976,14.4294479 Z M7.6097561,14.4294479 L7.6097561,17.2269939 L10.3902439,17.2269939 L10.3902439,14.4294479 L7.6097561,14.4294479 Z M18,14.4294479 L18,17.2269939 L20.7804878,17.2269939 L20.7804878,14.4294479 L18,14.4294479 Z M4.97560976,19.1411043 L4.97560976,22.0858896 L8.92682927,22.0858896 L8.92682927,19.1411043 L4.97560976,19.1411043 Z M15.0731707,19.1411043 L15.0731707,22.0858896 L19.0243902,22.0858896 L19.0243902,19.1411043 L15.0731707,19.1411043 Z" id="Combined-Shape"></path>
                </g>
                <rect id="Rectangle" stroke="#FFFFFF" stroke-width="2" x="1" y="1" width="50" height="50" rx="25"></rect>
            </g>
        </g>
    </g>
</svg>