<?xml version="1.0" encoding="UTF-8"?>
<svg width="52px" height="52px" viewBox="0 0 52 52" version="1.1" xmlns="http://www.w3.org/2000/svg" xmlns:xlink="http://www.w3.org/1999/xlink">
    <!-- Generator: Sketch 52.3 (67297) - http://www.bohemiancoding.com/sketch -->
    <title>domestic-icon</title>
    <desc>Created with Sketch.</desc>
    <g id="Page-1" stroke="none" stroke-width="1" fill="none" fill-rule="evenodd">
        <g id="Bill-Calculator_Domestic" transform="translate(-190.000000, -373.000000)" fill-rule="nonzero">
            <g id="Group" transform="translate(170.000000, 363.000000)">
                <g id="domestic-icon" transform="translate(20.000000, 10.000000)">
                    <g id="Group-Copy" transform="translate(11.000000, 14.000000)" fill="#FFFFFF">
                        <path d="M23.1708543,14.0278713 L14.3047073,5.33166684 L5.97487437,13.7901959 L5.97487437,21.686747 L9.03517588,21.686747 L9.03517588,14.746988 L12.9698492,14.746988 L12.9698492,21.686747 L23.1708543,21.686747 L23.1708543,14.0278713 Z M25.5025126,16.3148373 L25.5025126,24 L3.64321608,24 L3.64321608,16.1578784 L3.24955249,16.5576241 C2.5183672,17.3001063 1.31893474,17.3139431 0.570545089,16.5885295 C-0.177844557,15.8631159 -0.191791446,14.6731513 0.539393841,13.9306692 L14.2581084,2.84217094e-14 L28.4374461,13.9075541 C29.1814991,14.6373454 29.1883533,15.827371 28.4527555,16.5655507 C27.7171577,17.3037304 26.5176637,17.3105305 25.7736108,16.5807392 L25.5025126,16.3148373 Z M9.32663317,3.26592328 L5.3919598,7.26138749 L5.3919598,0.578313253 L9.32663317,0.578313253 L9.32663317,3.26592328 Z" id="Shape"></path>
                        <polygon id="Path" points="16.0301508 14.746988 19.9648241 14.746988 19.9648241 18.6506024 16.0301508 18.6506024"></polygon>
                    </g>
                    <rect id="Rectangle" stroke="#FFFFFF" stroke-width="2" x="1" y="1" width="50" height="50" rx="25"></rect>
                </g>
            </g>
        </g>
    </g>
</svg>