<?xml version="1.0" encoding="UTF-8"?>
<svg width="52px" height="52px" viewBox="0 0 52 52" version="1.1" xmlns="http://www.w3.org/2000/svg" xmlns:xlink="http://www.w3.org/1999/xlink">
    <!-- Generator: Sketch 52.3 (67297) - http://www.bohemiancoding.com/sketch -->
    <title>industrial-icon</title>
    <desc>Created with Sketch.</desc>
    <g id="Page-1" stroke="none" stroke-width="1" fill="none" fill-rule="evenodd">
        <g id="Bill-Calculator_Domestic" transform="translate(-874.000000, -375.000000)" fill-rule="nonzero">
            <g id="industrial-icon" transform="translate(874.000000, 375.000000)">
                <g id="Group-3-Copy-2" transform="translate(14.000000, 14.000000)" fill="#FFFFFF">
                    <path d="M1.78723404,17.6774194 L1.78723404,11.483871 L6.38297872,8.25806452 L6.38297872,11.483871 L10.8510638,8.25806452 L10.8510638,11.483871 L15.4468085,8.25806452 L15.4468085,14.5806452 L16.9787234,14.5806452 L17.8723404,3.74193548 L20.4255319,3.74193548 L21.1914894,14.8387097 L22.8510638,14.8387097 L22.8510638,17.6774194 L24,17.6774194 L24,24 L0,24 L0,17.6774194 L1.78723404,17.6774194 Z M4.34042553,16.2580645 L4.34042553,18.9677419 L7.40425532,18.9677419 L7.40425532,16.2580645 L4.34042553,16.2580645 Z M10.4680851,16.2580645 L10.4680851,18.9677419 L13.5319149,18.9677419 L13.5319149,16.2580645 L10.4680851,16.2580645 Z M16.5957447,16.2580645 L16.5957447,18.9677419 L19.6595745,18.9677419 L19.6595745,16.2580645 L16.5957447,16.2580645 Z" id="Combined-Shape"></path>
                    <path d="M18.8716038,2.08761905 C18.4225225,0.0277343872 17.0681581,-0.410074112 14.8085106,0.774193548 C12.6425865,1.90934139 11.1193733,1.89809761 10.2388712,0.740462211 L10.2389218,0.740423738 C10.2174069,0.712137069 10.1770347,0.706647508 10.148748,0.728162462 C10.1296659,0.742676381 10.1202346,0.766595051 10.1242757,0.790226594 C10.3449911,2.08092324 11.0127857,2.80676168 12.1276596,2.96774194 C13.3191489,3.13978495 14.212766,2.66611525 14.8085106,1.54673284 C15.4893617,0.773642128 16.2978723,0.64516129 17.2340426,1.16129032 C18.0765957,1.62580645 18.6089362,1.95096774 18.8310638,2.13677419 L18.8718463,2.08801958 C18.8717233,2.08791666 18.871638,2.08777576 18.8716038,2.08761905 Z" id="Path-3"></path>
                </g>
                <rect id="Rectangle" stroke="#FFFFFF" stroke-width="2" x="1" y="1" width="50" height="50" rx="25"></rect>
            </g>
        </g>
    </g>
</svg>